<svg width="14" height="11" viewBox="0 0 14 11" fill="none" xmlns="http://www.w3.org/2000/svg">
<path d="M11.1059 0.3336C11.3332 0.117261 11.6356 -0.00233924 11.9493 3.46748e-05C12.263 0.00240859 12.5636 0.126572 12.7875 0.346324C13.0115 0.566077 13.1413 0.86423 13.1496 1.17787C13.1579 1.49151 13.044 1.79611 12.832 2.02739L6.39559 10.0769C6.28492 10.1961 6.15134 10.2918 6.00285 10.3582C5.85435 10.4246 5.69399 10.4604 5.53136 10.4634C5.36872 10.4664 5.20715 10.4366 5.0563 10.3757C4.90545 10.3149 4.76842 10.2242 4.65341 10.1092L0.385068 5.84083C0.266201 5.73007 0.170862 5.5965 0.104736 5.44809C0.0386111 5.29969 0.00305447 5.13948 0.000188284 4.97703C-0.0026779 4.81459 0.0272051 4.65323 0.0880541 4.50258C0.148903 4.35193 0.239472 4.21508 0.354357 4.1002C0.469242 3.98531 0.60609 3.89474 0.756737 3.8339C0.907384 3.77305 1.06874 3.74316 1.23119 3.74603C1.39364 3.7489 1.55384 3.78445 1.70225 3.85058C1.85066 3.9167 1.98422 4.01204 2.09499 4.13091L5.47288 7.50719L11.0753 0.369089C11.0854 0.35667 11.0961 0.344821 11.1075 0.3336H11.1059Z" fill="#2066C7"/>
</svg>
