<svg width="37" height="38" viewBox="0 0 37 38" fill="none" xmlns="http://www.w3.org/2000/svg">
<path d="M0.784556 18.835C0.783692 21.954 1.59867 24.9995 3.14833 27.6839L0.636353 36.8555L10.0224 34.3944C12.6184 35.8077 15.5271 36.5482 18.4829 36.5484H18.4907C28.2483 36.5484 36.1913 28.6083 36.1955 18.8489C36.1974 14.1198 34.3573 9.67285 31.0143 6.3272C27.6718 2.98184 23.2264 1.13851 18.49 1.13635C8.73113 1.13635 0.788729 9.07601 0.7847 18.835" fill="url(#paint0_linear_48_3403)"/>
<path d="M0.153959 18.8335C0.152951 22.0647 0.997133 25.2191 2.60204 27.9996L0 37.5L9.72256 34.9508C12.4014 36.4114 15.4176 37.1814 18.4867 37.1826H18.4946C28.6023 37.1826 36.8306 28.9569 36.8349 18.8481C36.8367 13.9491 34.9305 9.34226 31.468 5.87675C28.0051 2.41168 23.4007 0.502014 18.4946 0.5C8.38513 0.5 0.158131 8.72456 0.154102 18.8335H0.153959ZM5.94395 27.5207L5.58093 26.9445C4.05487 24.518 3.24939 21.7139 3.25054 18.8346C3.25385 10.4323 10.0919 3.59644 18.5004 3.59644C22.5723 3.59817 26.3991 5.18552 29.2775 8.06556C32.1556 10.9459 33.7394 14.7747 33.7384 18.847C33.7346 27.2492 26.8964 34.086 18.4946 34.086H18.4886C15.7528 34.0846 13.0698 33.3499 10.7299 31.9615L10.1731 31.6313L4.4035 33.144L5.94395 27.5206V27.5207Z" fill="url(#paint1_linear_48_3403)"/>
<path d="M13.909 11.1697C13.5657 10.4067 13.2044 10.3913 12.8779 10.3779C12.6106 10.3664 12.305 10.3673 11.9996 10.3673C11.694 10.3673 11.1975 10.4823 10.7778 10.9405C10.3576 11.3992 9.17371 12.5078 9.17371 14.7623C9.17371 17.017 10.8159 19.1959 11.0448 19.5019C11.274 19.8074 14.2151 24.5821 18.873 26.419C22.7441 27.9455 23.5319 27.6419 24.372 27.5653C25.2123 27.4891 27.0834 26.4571 27.4651 25.387C27.8472 24.3171 27.8472 23.4 27.7326 23.2083C27.6181 23.0174 27.3125 22.9027 26.8542 22.6736C26.3958 22.4444 24.1428 21.3358 23.7228 21.1828C23.3026 21.03 22.9972 20.9537 22.6916 21.4126C22.3859 21.8707 21.5084 22.9027 21.2409 23.2083C20.9737 23.5146 20.7062 23.5528 20.2481 23.3236C19.7895 23.0936 18.3137 22.6103 16.5627 21.0493C15.2004 19.8346 14.2807 18.3346 14.0133 17.8757C13.746 17.4176 13.9847 17.1692 14.2145 16.9409C14.4204 16.7356 14.6729 16.4058 14.9023 16.1383C15.1308 15.8707 15.207 15.6797 15.3598 15.3741C15.5128 15.0682 15.4362 14.8006 15.3218 14.5714C15.207 14.3422 14.3165 12.0759 13.909 11.1699" fill="white"/>
<defs>
<linearGradient id="paint0_linear_48_3403" x1="18.4159" y1="36.8555" x2="18.4159" y2="1.13635" gradientUnits="userSpaceOnUse">
<stop stop-color="#1FAF38"/>
<stop offset="1" stop-color="#60D669"/>
</linearGradient>
<linearGradient id="paint1_linear_48_3403" x1="18.4175" y1="37.5" x2="18.4175" y2="0.5" gradientUnits="userSpaceOnUse">
<stop stop-color="#F9F9F9"/>
<stop offset="1" stop-color="white"/>
</linearGradient>
</defs>
</svg>
